# xmcd CD database file
#
# Track frame offsets:
#	150
#	19795
#	34768
#	52543
#	75942
#	93280
#	120500
#	150138
#	171977
#	192370
#	207885
#	226394
#	246726
#	261758
#	279211
#
# Disc length: 3930 seconds
#
# Revision: 0
# Processed by: cddbd v1.5.2PL0 Copyright (c) Steve Scherf et al.
# Submitted via: CDex 1.70beta2
#
DISCID=b10f580f
DTITLE=Various Artist - Audiophile Male Voice (K2)
DYEAR=2007
DGENRE=Jazz
TTITLE0=Ain't no Sunshine
TTITLE1=The very thought of you
TTITLE2=Any dream will do
TTITLE3=Blowing in the wind
TTITLE4=How deep is your love
TTITLE5=In the air tonight
TTITLE6=John And Josie
TTITLE7=Just like love
TTITLE8=Isn't She Lovely
TTITLE9=Mighty's Prayer
TTITLE10=Moskauer Nacchte
TTITLE11=Old Fashioned Saturday Night
TTITLE12=Nickels and Dimes and Love
TTITLE13=Unchained Melody
TTITLE14=Paris
EXTD=YEAR: 2007
EXTT0=
EXTT1=
EXTT2=
EXTT3=
EXTT4=
EXTT5=
EXTT6=
EXTT7=
EXTT8=
EXTT9=
EXTT10=
EXTT11=
EXTT12=
EXTT13=
EXTT14=
PLAYORDER=
